# xmcd CD database file
#
# Track frame offsets:
#	150
#	23406
#	47228
#	66773
#	92854
#	111369
#	132327
#	158761
#	178210
#	192892
#	213260
#	235496
#	254756
#
# Disc length: 3716 seconds
#
# Revision: 3
# Processed by: cddbd v1.5.2PL0 Copyright (c) Steve Scherf et al.
# Submitted via: CDex 1.51
#
DISCID=bc0e820d
DTITLE=BLIND GUARDIAN - A Twist In The Myth
DYEAR=2006
DGENRE=Metal
TTITLE0=This Will Never End
TTITLE1=Otherland
TTITLE2=Turn The Page
TTITLE3=Fly
TTITLE4=Carry The Blessed Home
TTITLE5=Another Stranger Me
TTITLE6=Straight Through The Mirror
TTITLE7=Lionheart
TTITLE8=Skalds And Shadows
TTITLE9=The Edge
TTITLE10=The New Order
TTITLE11=All The King's Horses
TTITLE12=Dead Sound Of Misery
EXTD=YEAR: 2006
EXTT0=
EXTT1=
EXTT2=
EXTT3=
EXTT4=
EXTT5=
EXTT6=
EXTT7=
EXTT8=
EXTT9=
EXTT10=
EXTT11=
EXTT12=
PLAYORDER=
